<mxfile host="app.diagrams.net" agent="Mozilla/5.0 (Windows NT 10.0; Win64; x64) AppleWebKit/537.36 (KHTML, like Gecko) Chrome/126.0.0.0 Safari/537.36" version="24.7.16">
  <diagram name="第 1 页" id="KnvPMg0gDxFWMBzjEcAq">
    <mxGraphModel dx="1259" dy="662" grid="0" gridSize="10" guides="1" tooltips="1" connect="1" arrows="1" fold="1" page="0" pageScale="1" pageWidth="827" pageHeight="1169" math="0" shadow="0">
      <root>
        <mxCell id="0" />
        <mxCell id="1" parent="0" />
        <mxCell id="FBj6xeLaM7qPweB2Bumr-3" style="edgeStyle=orthogonalEdgeStyle;rounded=0;orthogonalLoop=1;jettySize=auto;html=1;exitX=0.5;exitY=1;exitDx=0;exitDy=0;entryX=0.5;entryY=0;entryDx=0;entryDy=0;" edge="1" parent="1" source="FBj6xeLaM7qPweB2Bumr-1" target="FBj6xeLaM7qPweB2Bumr-2">
          <mxGeometry relative="1" as="geometry" />
        </mxCell>
        <mxCell id="FBj6xeLaM7qPweB2Bumr-1" value="&lt;div&gt;&lt;b&gt;&lt;font color=&quot;#a600ff&quot; style=&quot;font-size: 16px;&quot;&gt;原始数据&lt;/font&gt;&lt;/b&gt;&lt;/div&gt;&lt;b&gt;&lt;font style=&quot;font-size: 16px;&quot;&gt;根据地块id查出所有的地块种植物&lt;/font&gt;&lt;/b&gt;" style="rounded=1;whiteSpace=wrap;html=1;" vertex="1" parent="1">
          <mxGeometry x="300" y="170" width="250" height="80" as="geometry" />
        </mxCell>
        <mxCell id="FBj6xeLaM7qPweB2Bumr-7" style="edgeStyle=orthogonalEdgeStyle;rounded=0;orthogonalLoop=1;jettySize=auto;html=1;exitX=0.75;exitY=1;exitDx=0;exitDy=0;entryX=0.5;entryY=0;entryDx=0;entryDy=0;" edge="1" parent="1" source="FBj6xeLaM7qPweB2Bumr-2" target="FBj6xeLaM7qPweB2Bumr-6">
          <mxGeometry relative="1" as="geometry" />
        </mxCell>
        <mxCell id="FBj6xeLaM7qPweB2Bumr-9" style="edgeStyle=orthogonalEdgeStyle;rounded=0;orthogonalLoop=1;jettySize=auto;html=1;exitX=0.25;exitY=1;exitDx=0;exitDy=0;entryX=0.5;entryY=0;entryDx=0;entryDy=0;" edge="1" parent="1" source="FBj6xeLaM7qPweB2Bumr-2" target="FBj6xeLaM7qPweB2Bumr-8">
          <mxGeometry relative="1" as="geometry" />
        </mxCell>
        <mxCell id="FBj6xeLaM7qPweB2Bumr-2" value="&lt;div&gt;&lt;b&gt;&lt;font color=&quot;#a600ff&quot; style=&quot;font-size: 16px;&quot;&gt;状态过滤&lt;/font&gt;&lt;/b&gt;&lt;/div&gt;&lt;b&gt;&lt;font style=&quot;font-size: 16px;&quot;&gt;根据地块种植物的status字段过滤出所有合法的种植季validPlantSeason&lt;/font&gt;&lt;/b&gt;" style="rounded=1;whiteSpace=wrap;html=1;" vertex="1" parent="1">
          <mxGeometry x="265" y="300" width="320" height="80" as="geometry" />
        </mxCell>
        <mxCell id="FBj6xeLaM7qPweB2Bumr-4" value="地块：物理土地的实体，一个农场有若干个地块" style="text;html=1;align=center;verticalAlign=middle;resizable=0;points=[];autosize=1;strokeColor=none;fillColor=none;" vertex="1" parent="1">
          <mxGeometry x="560" y="170" width="280" height="30" as="geometry" />
        </mxCell>
        <mxCell id="FBj6xeLaM7qPweB2Bumr-5" value="地块种植物：将地块和种植季绑定而产生的实体" style="text;html=1;align=center;verticalAlign=middle;resizable=0;points=[];autosize=1;strokeColor=none;fillColor=none;" vertex="1" parent="1">
          <mxGeometry x="560" y="200" width="280" height="30" as="geometry" />
        </mxCell>
        <mxCell id="FBj6xeLaM7qPweB2Bumr-11" style="edgeStyle=orthogonalEdgeStyle;rounded=0;orthogonalLoop=1;jettySize=auto;html=1;exitX=0.5;exitY=1;exitDx=0;exitDy=0;" edge="1" parent="1" source="FBj6xeLaM7qPweB2Bumr-6">
          <mxGeometry relative="1" as="geometry">
            <mxPoint x="440" y="650" as="targetPoint" />
          </mxGeometry>
        </mxCell>
        <mxCell id="FBj6xeLaM7qPweB2Bumr-6" value="&lt;div&gt;&lt;b&gt;&lt;font color=&quot;#a600ff&quot; style=&quot;font-size: 16px;&quot;&gt;反向过滤&lt;/font&gt;&lt;/b&gt;&lt;/div&gt;&lt;b&gt;&lt;font style=&quot;font-size: 16px;&quot;&gt;以合法种植季validPlantSeason为条件，过滤原始数据中的地块种植物（存在有效种植季的地块种植物）&lt;/font&gt;&lt;/b&gt;" style="rounded=1;whiteSpace=wrap;html=1;" vertex="1" parent="1">
          <mxGeometry x="450" y="450" width="260" height="80" as="geometry" />
        </mxCell>
        <mxCell id="FBj6xeLaM7qPweB2Bumr-10" style="edgeStyle=orthogonalEdgeStyle;rounded=0;orthogonalLoop=1;jettySize=auto;html=1;exitX=0.5;exitY=1;exitDx=0;exitDy=0;" edge="1" parent="1" source="FBj6xeLaM7qPweB2Bumr-8">
          <mxGeometry relative="1" as="geometry">
            <mxPoint x="380" y="650" as="targetPoint" />
          </mxGeometry>
        </mxCell>
        <mxCell id="FBj6xeLaM7qPweB2Bumr-8" value="&lt;b&gt;&lt;font style=&quot;font-size: 16px;&quot;&gt;查询有效种植季对应的品种推荐表，获取当前种植品种的基因等参数&lt;/font&gt;&lt;/b&gt;" style="rounded=1;whiteSpace=wrap;html=1;" vertex="1" parent="1">
          <mxGeometry x="130" y="450" width="260" height="80" as="geometry" />
        </mxCell>
        <mxCell id="FBj6xeLaM7qPweB2Bumr-12" value="&lt;b&gt;&lt;font style=&quot;font-size: 16px;&quot; color=&quot;#a600ff&quot;&gt;装填DTO&lt;/font&gt;&lt;/b&gt;" style="rounded=1;whiteSpace=wrap;html=1;" vertex="1" parent="1">
          <mxGeometry x="280" y="650" width="260" height="80" as="geometry" />
        </mxCell>
      </root>
    </mxGraphModel>
  </diagram>
</mxfile>
